<?xml version="1.0" encoding="UTF-8"?>
<svg version="1.1" viewBox="0 0 64 64" xmlns="http://www.w3.org/2000/svg" xmlns:cc="http://creativecommons.org/ns#" xmlns:dc="http://purl.org/dc/elements/1.1/" xmlns:rdf="http://www.w3.org/1999/02/22-rdf-syntax-ns#">
  <title>OpenUserJS.org favicon</title>
  <metadata>
    <rdf:RDF>
      <cc:Work rdf:about="">
        <dc:format>image/svg+xml</dc:format>
        <dc:type rdf:resource="http://purl.org/dc/dcmitype/StillImage"/>
        <dc:title>OpenUserJS.org favicon</dc:title>
        <dc:date>2014-05-31</dc:date>
        <dc:creator>
          <cc:Agent>
            <dc:title>Marti Martz (https://github.com/Martii)</dc:title>
          </cc:Agent>
        </dc:creator>
        <dc:rights>
          <cc:Agent>
            <dc:title>https://github.com/OpenUserJS/OpenUserJS.org/blob/master/LICENSE</dc:title>
          </cc:Agent>
        </dc:rights>
        <dc:publisher>
          <cc:Agent>
            <dc:title>Marti Martz (https://github.com/Martii)</dc:title>
          </cc:Agent>
        </dc:publisher>
        <dc:source>https://raw.githubusercontent.com/OpenUserJS/OpenUserJS.org/441f6e5fc633c8c6d8c8a3d45a5868544e68dcb5/public/images/favicon.ico</dc:source>
        <dc:language>en-US</dc:language>
        <dc:subject>
          <rdf:Bag>
            <rdf:li>favicon</rdf:li>
          </rdf:Bag>
        </dc:subject>
        <dc:description>Base SVG for favicon</dc:description>
        <dc:contributor>
          <cc:Agent>
            <dc:title>OpenUserJS, DoctorSnowMan, Marti Martz</dc:title>
          </cc:Agent>
        </dc:contributor>
        <cc:license rdf:resource="https://www.gnu.org/licenses/fdl-1.3.txt"/>
      </cc:Work>
    </rdf:RDF>
  </metadata>
  <defs>
    <filter id="a" x="-.012" y="-.012" width="1.024" height="1.024" color-interpolation-filters="sRGB">
      <feGaussianBlur stdDeviation="0.23737"/>
    </filter>
  </defs>
  <rect width="64" height="64" fill="#dbe5dd"/>
  <path d="m31.989 8.2769a23.737 23.737 0 0 0-23.738 23.736 23.737 23.737 0 0 0 23.738 23.738 23.737 23.737 0 0 0 23.736-23.738 23.737 23.737 0 0 0-23.736-23.736zm0.0449 7.2598a16.431 16.431 0 0 1 1.6406 0.08203 16.431 16.431 0 0 1 1.623 0.24609 16.431 16.431 0 0 1 1.5918 0.40625 16.431 16.431 0 0 1 1.543 0.5625 16.431 16.431 0 0 1 1.4785 0.71484 16.431 16.431 0 0 1 1.4004 0.85938 16.431 16.431 0 0 1 1.3086 0.99414 16.431 16.431 0 0 1 1.2012 1.1191 16.431 16.431 0 0 1 1.084 1.2344 16.431 16.431 0 0 1 0.95508 1.3359 16.431 16.431 0 0 1 0.81836 1.4238 16.431 16.431 0 0 1 0.66992 1.5 16.431 16.431 0 0 1 0.51758 1.5586 16.431 16.431 0 0 1 0.35937 1.6016 16.431 16.431 0 0 1 0.19922 1.6309 16.431 16.431 0 0 1 0.041 1.1621 16.431 16.431 0 0 1-0.082 1.6406 16.431 16.431 0 0 1-0.24609 1.623 16.431 16.431 0 0 1-0.40625 1.5918 16.431 16.431 0 0 1-0.5625 1.543 16.431 16.431 0 0 1-0.71484 1.4785 16.431 16.431 0 0 1-0.85938 1.4004 16.431 16.431 0 0 1-0.99414 1.3086 16.431 16.431 0 0 1-1.1191 1.2012 16.431 16.431 0 0 1-1.2344 1.084 16.431 16.431 0 0 1-1.3359 0.95508 16.431 16.431 0 0 1-1.4238 0.81641 16.431 16.431 0 0 1-1.5 0.67188 16.431 16.431 0 0 1-1.5586 0.51758 16.431 16.431 0 0 1-1.6016 0.35938 16.431 16.431 0 0 1-1.6308 0.19922 16.431 16.431 0 0 1-1.1621 0.04101 16.431 16.431 0 0 1-1.6406-0.08203 16.431 16.431 0 0 1-1.623-0.24609 16.431 16.431 0 0 1-1.5918-0.40625 16.431 16.431 0 0 1-1.543-0.5625 16.431 16.431 0 0 1-1.4785-0.71484 16.431 16.431 0 0 1-1.4004-0.85938 16.431 16.431 0 0 1-1.3086-0.99414 16.431 16.431 0 0 1-1.2012-1.1191 16.431 16.431 0 0 1-1.084-1.2344 16.431 16.431 0 0 1-0.95508-1.3359 16.431 16.431 0 0 1-0.81641-1.4238 16.431 16.431 0 0 1-0.67188-1.5 16.431 16.431 0 0 1-0.51758-1.5586 16.431 16.431 0 0 1-0.35938-1.6016 16.431 16.431 0 0 1-0.19922-1.6309 16.431 16.431 0 0 1-0.04102-1.1621 16.431 16.431 0 0 1 0.08203-1.6406 16.431 16.431 0 0 1 0.24609-1.623 16.431 16.431 0 0 1 0.40625-1.5918 16.431 16.431 0 0 1 0.5625-1.543 16.431 16.431 0 0 1 0.71484-1.4785 16.431 16.431 0 0 1 0.85938-1.4004 16.431 16.431 0 0 1 0.99414-1.3086 16.431 16.431 0 0 1 1.1191-1.2012 16.431 16.431 0 0 1 1.2344-1.084 16.431 16.431 0 0 1 1.3359-0.95508 16.431 16.431 0 0 1 1.4238-0.81836 16.431 16.431 0 0 1 1.5-0.66992 16.431 16.431 0 0 1 1.5586-0.51758 16.431 16.431 0 0 1 1.6016-0.35938 16.431 16.431 0 0 1 1.6309-0.19922 16.431 16.431 0 0 1 1.1621-0.04102z" fill="#065071" filter="url(#a)"/>
</svg>
