<?xml version="1.0" encoding="UTF-8"?><svg viewBox="0 0 100 100" xmlns="http://www.w3.org/2000/svg" xmlns:xlink="http://www.w3.org/1999/xlink"> <metadata id="license" xmlns:dc="http://purl.org/dc/elements/1.1/" xmlns:rdf="http://www.w3.org/1999/02/22-rdf-syntax-ns#" xmlns:cc="http://creativecommons.org/ns#"><rdf:RDF><cc:Work rdf:about="greasemonkey-icon.svg"><dc:type rdf:resource="http://purl.org/dc/dcmitype/StillImage"/><dc:format>image/svg+xml</dc:format><dc:source>https://github.com/greasemonkey/greasemonkey/blob/671696761adcb33437df8293e6a5fc82ce4dc0b8/content/icon_medium.png</dc:source><dc:rights>https://github.com/greasemonkey/greasemonkey/blob/master/LICENSE.mit</dc:rights><dc:date>2017-01-15</dc:date><dc:creator>Pak-Kei Mak (http://arkidect.com/)</dc:creator><cc:license rdf:resource="https://creativecommons.org/licenses/by-sa/4.0/legalcode"/><cc:attributionName>J.W Organization</cc:attributionName><cc:attributionURL rdf:resource="https://github.com/jakwings"/><cc:attributionName>J.W &lt;jakwings@gmail.com&gt;</cc:attributionName><cc:attributionURL rdf:resource="https://github.com/iology"/><cc:attributionName>OpenUserJS Organization</cc:attributionName><cc:attributionURL rdf:resource="https://github.com/OpenUserJS"/><cc:attributionName>Marti Martz</cc:attributionName><cc:attributionURL rdf:resource="https://sourceforge.net/u/mmartz/profile/"/></cc:Work></rdf:RDF></metadata><g fill-rule="evenodd"><path d="m81.36 31.525c6.531-8.512 15.93-1.201 17.17 5.45 2.992 16-2.674 22.442-9.592 25.98-3.176 1.625-7.01-6.986-8.08-11.378-1.42-5.855-3.277-15.14.496-20.05" fill="#874300"/><path d="m85.69 35.2c3.825-2.297 6.425 2.427 7.427 5.426 1.304 3.901.397 8.84-.146 11.02-.763 3.06-3.049 6.806-4.356 6.327-2.221-.814-3.794-4.688-4.165-7.575-.649-5.05-.463-14.172 1.24-15.195" fill="url(#0)"/></g><defs><linearGradient id="6" x1="53.32" x2="61.34" y1="43.621" y2="63.1" gradientUnits="userSpaceOnUse" xlink:href="#4"/><linearGradient id="5" x1="40.979" x2="36.682" y1="52.17" y2="49" gradientUnits="userSpaceOnUse"><stop stop-color="#e6ffe6"/><stop stop-color="#d0e6d0" offset=".343"/><stop stop-color="#d0e6d0" offset=".694"/><stop stop-color="#e6ffe6" offset="1"/></linearGradient><linearGradient id="4" x1="34.425" x2="42.44" y1="45.09" y2="64.57" gradientUnits="userSpaceOnUse"><stop stop-color="#346732"/><stop stop-color="#021301" offset="1"/></linearGradient><linearGradient id="7" x1="59.877" x2="55.58" y1="50.704" y2="47.536" gradientUnits="userSpaceOnUse" xlink:href="#5"/><radialGradient id="2" cx="52.3" cy="69.33" r="69.44" fx="52.29" fy="69.34" gradientUnits="userSpaceOnUse"><stop stop-color="#efddb5"/><stop stop-color="#efd092" offset=".407"/><stop stop-color="#cca76e" offset=".678"/><stop stop-color="#8d4600" offset="1"/></radialGradient><radialGradient id="1" cx="17.393" cy="51.796" r="12.71" fx="15.645" fy="58.2" gradientUnits="userSpaceOnUse" xlink:href="#0"/><radialGradient id="3" cx="50.45" cy="50.737" r="35.867" fx="50.44" fy="50.745" gradientUnits="userSpaceOnUse"><stop stop-color="#570503" offset=".631"/><stop stop-color="#710603" offset=".796"/><stop stop-color="#680603" offset=".889"/><stop stop-color="#570503" offset="1"/></radialGradient><radialGradient id="0" cx="84.12" cy="46.615" r="12.71" fx="86.83" fy="52.673" gradientUnits="userSpaceOnUse"><stop stop-color="#957c53"/><stop stop-color="#d3af75" offset=".762"/><stop stop-color="#c8a66f" offset="1"/></radialGradient></defs><g fill-rule="evenodd"><path d="M17.637 36.473C9.513 29.099.917 37.807.678 44.575.105 60.85 7.004 66.317 14.743 68.716c3.553 1.102 6.17-8.01 6.581-12.516.548-6.009 1.006-15.469-3.687-19.728z" fill="#874300"/><path d="m14.07 40.757c-4.134-1.68-5.973 3.39-6.5 6.507-.687 4.055.971 8.794 1.844 10.862 1.226 2.906 4.063 6.254 5.28 5.579 2.07-1.148 3.03-5.217 2.946-8.127-.138-5.087-1.73-14.07-3.57-14.821" fill="url(#1)"/></g><g fill-rule="evenodd"><path d="m54.676 99.64c9.827-.763 17.826-2.384 25.552-5.986 7.725-3.602 14.15-11.11 15.441-20.21 1.294-9.107-2.308-16.833-6.517-19.506-.773-9.947-.936-14-4.606-20.656-4.333-7.855-11.414-18.13-36.28-16.195h-.01c-24.863 1.928-30.27 13.174-33.34 21.602-2.599 7.14-2.134 11.172-1.362 21.12-3.746 3.291-6.112 11.48-3.428 20.278s10.187 15.22 18.376 17.586 16.342 2.734 26.17 1.97h.005" fill="#874300"/><path d="M74.952 0c-11.627 4.906-24.934 13.944-33.19 23.592 10.863-1.845 16.677-4.297 26.469-7.06L74.952 0z" fill="#613000"/><path d="m14.92 38.687c3.202-10.257 8.85-27.712 60.03-38.687-13.539 6.05-23.94 13.867-33.19 23.592 10.863-1.845 19.583-5.524 26.469-7.06 6.885-1.534 15.76-3.224 15.76-3.224-1.835 2.144-3.593 5.282-6.268 9.493 2.144 1.835 5.514 6.576 6.818 10.48l-69.62 5.406" fill="#874300"/><path d="m49.962 38.968c3.43-12.31 19.465-21.35 28.766-3.234 2.843 5.533 2.898 11.552 3.457 18.744 4.328 4.219 6.755 6.507 6.285 16.522-.377 8.03-7.281 13.746-12.69 16.996-5.736 3.447-14.159 5.102-21.573 5.678-7.413.575-15.991.24-22.19-2.28-5.846-2.376-13.549-6.953-15.16-14.833-2-9.824.035-12.459 3.66-17.295-.558-7.191-1.432-13.147.522-19.05 6.393-19.335 23.631-12.878 28.92-1.245" fill="url(#2)"/></g><path d="m52.42 76.1c-3.982.31-7.99.687-11.975.43-3.1-.2-6.307-.528-9.145-1.791-1.52-.677-2.606-2.923-3.293-3.747-.6-1.071-1.845-1.55-2.067-.84-.595 1.904-.462 4.2.464 5.968.982 1.874 2.888 3.272 4.823 4.128 2.695 1.192 5.712 1.583 8.648 1.83 4.32.363 8.685.326 13.01-.01 4.323-.335 8.64-.972 12.854-1.998 2.862-.697 5.783-1.55 8.261-3.143 1.78-1.145 3.448-2.82 4.129-4.824.641-1.89.419-4.178-.463-5.968-.33-.667-1.485-.001-1.913 1.15-.552.92-1.278 3.307-2.675 4.21-2.608 1.686-5.727 2.505-8.759 3.181-3.898.87-7.915 1.115-11.897 1.425" fill="url(#3)" fill-rule="evenodd"/><path d="m35.2 55.12c-.538-6.966 2.122-10.17 5.693-10.45 3.57-.274 6.7 2.48 7.237 9.444.538 6.963-2.122 10.17-5.693 10.45-3.57.274-6.7-2.483-7.237-9.444" fill="url(#4)" fill-rule="evenodd"/><path d="m37 52.48c-.193-2.484.724-3.558 1.719-3.635.995-.077 2.067.842 2.26 3.327.193 2.488-.725 3.555-1.72 3.636-.994.08-2.065-.84-2.259-3.328" fill="url(#5)" fill-rule="evenodd"/><path d="m54.1 53.655c-.537-6.965 2.122-10.17 5.693-10.45 3.57-.274 6.7 2.48 7.237 9.445.538 6.962-2.122 10.17-5.692 10.45-3.571.274-6.7-2.484-7.238-9.445" fill="url(#6)" fill-rule="evenodd"/><path d="m55.898 51.01c-.193-2.485.725-3.559 1.72-3.636.994-.076 2.066.842 2.259 3.328.193 2.487-.724 3.554-1.719 3.635-.994.081-2.066-.839-2.26-3.327" fill="url(#7)" fill-rule="evenodd"/></svg>
